<mxfile host="app.diagrams.net" modified="2024-03-10T04:51:14.383Z" agent="Mozilla/5.0 (Windows NT 10.0; Win64; x64) AppleWebKit/537.36 (KHTML, like Gecko) Chrome/121.0.0.0 Safari/537.36" etag="iONfJ26mOZ5_ne_kXPLo" version="24.0.4" type="device">
  <diagram id="R2lEEEUBdFMjLlhIrx00" name="Page-1">
    <mxGraphModel dx="1352" dy="709" grid="1" gridSize="10" guides="1" tooltips="1" connect="1" arrows="1" fold="1" page="1" pageScale="1" pageWidth="850" pageHeight="1100" math="0" shadow="0" extFonts="Permanent Marker^https://fonts.googleapis.com/css?family=Permanent+Marker">
      <root>
        <mxCell id="0" />
        <mxCell id="1" parent="0" />
        <mxCell id="fLqAwY6kQhY1PWnp1FHk-3" value="&lt;font style=&quot;font-size: 18px;&quot;&gt;Professors&lt;/font&gt;" style="rounded=0;whiteSpace=wrap;html=1;" vertex="1" parent="1">
          <mxGeometry x="220" y="110" width="120" height="40" as="geometry" />
        </mxCell>
        <mxCell id="fLqAwY6kQhY1PWnp1FHk-7" value="&lt;font style=&quot;font-size: 18px;&quot;&gt;Classrooms&lt;/font&gt;" style="rounded=0;whiteSpace=wrap;html=1;" vertex="1" parent="1">
          <mxGeometry x="780" y="550" width="120" height="40" as="geometry" />
        </mxCell>
        <mxCell id="fLqAwY6kQhY1PWnp1FHk-16" value="professor_id" style="ellipse;whiteSpace=wrap;html=1;" vertex="1" parent="1">
          <mxGeometry x="20" y="40" width="100" height="40" as="geometry" />
        </mxCell>
        <mxCell id="fLqAwY6kQhY1PWnp1FHk-17" value="professor_name" style="ellipse;whiteSpace=wrap;html=1;" vertex="1" parent="1">
          <mxGeometry x="20" y="110" width="100" height="40" as="geometry" />
        </mxCell>
        <mxCell id="fLqAwY6kQhY1PWnp1FHk-18" value="professor_email" style="ellipse;whiteSpace=wrap;html=1;" vertex="1" parent="1">
          <mxGeometry x="20" y="170" width="100" height="40" as="geometry" />
        </mxCell>
        <mxCell id="fLqAwY6kQhY1PWnp1FHk-22" value="" style="endArrow=none;dashed=1;html=1;dashPattern=1 3;strokeWidth=2;rounded=0;entryX=1;entryY=0.5;entryDx=0;entryDy=0;exitX=0;exitY=0.5;exitDx=0;exitDy=0;" edge="1" parent="1" source="fLqAwY6kQhY1PWnp1FHk-3" target="fLqAwY6kQhY1PWnp1FHk-16">
          <mxGeometry width="50" height="50" relative="1" as="geometry">
            <mxPoint x="370" y="300" as="sourcePoint" />
            <mxPoint x="420" y="250" as="targetPoint" />
          </mxGeometry>
        </mxCell>
        <mxCell id="fLqAwY6kQhY1PWnp1FHk-23" value="" style="endArrow=none;dashed=1;html=1;dashPattern=1 3;strokeWidth=2;rounded=0;exitX=1;exitY=0.5;exitDx=0;exitDy=0;entryX=0;entryY=0.5;entryDx=0;entryDy=0;" edge="1" parent="1" source="fLqAwY6kQhY1PWnp1FHk-17" target="fLqAwY6kQhY1PWnp1FHk-3">
          <mxGeometry width="50" height="50" relative="1" as="geometry">
            <mxPoint x="370" y="300" as="sourcePoint" />
            <mxPoint x="420" y="250" as="targetPoint" />
          </mxGeometry>
        </mxCell>
        <mxCell id="fLqAwY6kQhY1PWnp1FHk-24" value="" style="endArrow=none;dashed=1;html=1;dashPattern=1 3;strokeWidth=2;rounded=0;exitX=1;exitY=0.5;exitDx=0;exitDy=0;entryX=0;entryY=0.5;entryDx=0;entryDy=0;" edge="1" parent="1" source="fLqAwY6kQhY1PWnp1FHk-18" target="fLqAwY6kQhY1PWnp1FHk-3">
          <mxGeometry width="50" height="50" relative="1" as="geometry">
            <mxPoint x="370" y="300" as="sourcePoint" />
            <mxPoint x="420" y="250" as="targetPoint" />
          </mxGeometry>
        </mxCell>
        <mxCell id="fLqAwY6kQhY1PWnp1FHk-25" value="&lt;font style=&quot;font-size: 18px;&quot;&gt;Courses&lt;/font&gt;" style="rounded=0;whiteSpace=wrap;html=1;" vertex="1" parent="1">
          <mxGeometry x="780" y="110" width="120" height="40" as="geometry" />
        </mxCell>
        <mxCell id="fLqAwY6kQhY1PWnp1FHk-26" value="course_id" style="ellipse;whiteSpace=wrap;html=1;" vertex="1" parent="1">
          <mxGeometry x="1090" y="40" width="100" height="40" as="geometry" />
        </mxCell>
        <mxCell id="fLqAwY6kQhY1PWnp1FHk-28" value="course_name" style="ellipse;whiteSpace=wrap;html=1;" vertex="1" parent="1">
          <mxGeometry x="1100" y="130" width="100" height="40" as="geometry" />
        </mxCell>
        <mxCell id="fLqAwY6kQhY1PWnp1FHk-29" value="" style="endArrow=none;dashed=1;html=1;dashPattern=1 3;strokeWidth=2;rounded=0;entryX=1;entryY=0.5;entryDx=0;entryDy=0;exitX=0;exitY=0.5;exitDx=0;exitDy=0;" edge="1" parent="1" source="fLqAwY6kQhY1PWnp1FHk-26" target="fLqAwY6kQhY1PWnp1FHk-25">
          <mxGeometry width="50" height="50" relative="1" as="geometry">
            <mxPoint x="910" y="310" as="sourcePoint" />
            <mxPoint x="970" y="370" as="targetPoint" />
          </mxGeometry>
        </mxCell>
        <mxCell id="fLqAwY6kQhY1PWnp1FHk-30" value="&lt;font style=&quot;font-size: 18px;&quot;&gt;teach&lt;/font&gt;" style="rhombus;whiteSpace=wrap;html=1;" vertex="1" parent="1">
          <mxGeometry x="220" y="219" width="120" height="41" as="geometry" />
        </mxCell>
        <mxCell id="fLqAwY6kQhY1PWnp1FHk-31" value="" style="endArrow=none;dashed=1;html=1;dashPattern=1 3;strokeWidth=2;rounded=0;exitX=1;exitY=0.5;exitDx=0;exitDy=0;entryX=0;entryY=0.5;entryDx=0;entryDy=0;" edge="1" parent="1" source="fLqAwY6kQhY1PWnp1FHk-3" target="fLqAwY6kQhY1PWnp1FHk-63">
          <mxGeometry width="50" height="50" relative="1" as="geometry">
            <mxPoint x="370" y="330" as="sourcePoint" />
            <mxPoint x="420" y="280" as="targetPoint" />
          </mxGeometry>
        </mxCell>
        <mxCell id="fLqAwY6kQhY1PWnp1FHk-32" value="" style="endArrow=none;dashed=1;html=1;dashPattern=1 3;strokeWidth=2;rounded=0;exitX=1;exitY=0.5;exitDx=0;exitDy=0;entryX=0;entryY=0.5;entryDx=0;entryDy=0;" edge="1" parent="1" source="fLqAwY6kQhY1PWnp1FHk-63" target="fLqAwY6kQhY1PWnp1FHk-89">
          <mxGeometry width="50" height="50" relative="1" as="geometry">
            <mxPoint x="520" y="319" as="sourcePoint" />
            <mxPoint x="590" y="320" as="targetPoint" />
          </mxGeometry>
        </mxCell>
        <mxCell id="fLqAwY6kQhY1PWnp1FHk-33" value="" style="endArrow=none;dashed=1;html=1;dashPattern=1 3;strokeWidth=2;rounded=0;exitX=1;exitY=0.5;exitDx=0;exitDy=0;entryX=0;entryY=0.5;entryDx=0;entryDy=0;" edge="1" parent="1" source="fLqAwY6kQhY1PWnp1FHk-25" target="fLqAwY6kQhY1PWnp1FHk-28">
          <mxGeometry width="50" height="50" relative="1" as="geometry">
            <mxPoint x="970" y="370" as="sourcePoint" />
            <mxPoint x="920" y="350" as="targetPoint" />
          </mxGeometry>
        </mxCell>
        <mxCell id="fLqAwY6kQhY1PWnp1FHk-38" value="course_id" style="ellipse;whiteSpace=wrap;html=1;" vertex="1" parent="1">
          <mxGeometry x="980" y="530" width="100" height="40" as="geometry" />
        </mxCell>
        <mxCell id="fLqAwY6kQhY1PWnp1FHk-39" value="course_name" style="ellipse;whiteSpace=wrap;html=1;" vertex="1" parent="1">
          <mxGeometry x="980" y="600" width="100" height="40" as="geometry" />
        </mxCell>
        <mxCell id="fLqAwY6kQhY1PWnp1FHk-40" value="" style="endArrow=none;dashed=1;html=1;dashPattern=1 3;strokeWidth=2;rounded=0;exitX=0;exitY=0.5;exitDx=0;exitDy=0;" edge="1" parent="1" source="fLqAwY6kQhY1PWnp1FHk-38">
          <mxGeometry width="50" height="50" relative="1" as="geometry">
            <mxPoint x="941" y="600" as="sourcePoint" />
            <mxPoint x="900" y="570" as="targetPoint" />
          </mxGeometry>
        </mxCell>
        <mxCell id="fLqAwY6kQhY1PWnp1FHk-41" value="" style="endArrow=none;dashed=1;html=1;dashPattern=1 3;strokeWidth=2;rounded=0;exitX=1;exitY=0.5;exitDx=0;exitDy=0;entryX=0;entryY=0.5;entryDx=0;entryDy=0;" edge="1" parent="1" source="fLqAwY6kQhY1PWnp1FHk-7" target="fLqAwY6kQhY1PWnp1FHk-39">
          <mxGeometry width="50" height="50" relative="1" as="geometry">
            <mxPoint x="861" y="630" as="sourcePoint" />
            <mxPoint x="941" y="660" as="targetPoint" />
          </mxGeometry>
        </mxCell>
        <mxCell id="fLqAwY6kQhY1PWnp1FHk-51" value="&lt;font style=&quot;font-size: 18px;&quot;&gt;Assignments&lt;/font&gt;" style="rounded=0;whiteSpace=wrap;html=1;" vertex="1" parent="1">
          <mxGeometry x="390" y="540" width="120" height="40" as="geometry" />
        </mxCell>
        <mxCell id="fLqAwY6kQhY1PWnp1FHk-52" value="" style="endArrow=none;dashed=1;html=1;dashPattern=1 3;strokeWidth=2;rounded=0;exitX=0.5;exitY=1;exitDx=0;exitDy=0;entryX=0.5;entryY=0;entryDx=0;entryDy=0;" edge="1" parent="1" source="fLqAwY6kQhY1PWnp1FHk-51" target="fLqAwY6kQhY1PWnp1FHk-53">
          <mxGeometry width="50" height="50" relative="1" as="geometry">
            <mxPoint x="660" y="600" as="sourcePoint" />
            <mxPoint x="630" y="520" as="targetPoint" />
          </mxGeometry>
        </mxCell>
        <mxCell id="fLqAwY6kQhY1PWnp1FHk-53" value="assignment_id" style="ellipse;whiteSpace=wrap;html=1;" vertex="1" parent="1">
          <mxGeometry x="556" y="720" width="100" height="40" as="geometry" />
        </mxCell>
        <mxCell id="fLqAwY6kQhY1PWnp1FHk-54" value="course_id" style="ellipse;whiteSpace=wrap;html=1;" vertex="1" parent="1">
          <mxGeometry x="435" y="720" width="100" height="40" as="geometry" />
        </mxCell>
        <mxCell id="fLqAwY6kQhY1PWnp1FHk-55" value="assignment_topic" style="ellipse;whiteSpace=wrap;html=1;" vertex="1" parent="1">
          <mxGeometry x="320" y="720" width="100" height="40" as="geometry" />
        </mxCell>
        <mxCell id="fLqAwY6kQhY1PWnp1FHk-56" value="relevant_reading" style="ellipse;whiteSpace=wrap;html=1;" vertex="1" parent="1">
          <mxGeometry x="200" y="720" width="100" height="40" as="geometry" />
        </mxCell>
        <mxCell id="fLqAwY6kQhY1PWnp1FHk-57" value="" style="endArrow=none;dashed=1;html=1;dashPattern=1 3;strokeWidth=2;rounded=0;entryX=0.5;entryY=0;entryDx=0;entryDy=0;exitX=0.5;exitY=1;exitDx=0;exitDy=0;" edge="1" parent="1" source="fLqAwY6kQhY1PWnp1FHk-51" target="fLqAwY6kQhY1PWnp1FHk-54">
          <mxGeometry width="50" height="50" relative="1" as="geometry">
            <mxPoint x="660" y="600" as="sourcePoint" />
            <mxPoint x="710" y="550" as="targetPoint" />
          </mxGeometry>
        </mxCell>
        <mxCell id="fLqAwY6kQhY1PWnp1FHk-58" value="" style="endArrow=none;dashed=1;html=1;dashPattern=1 3;strokeWidth=2;rounded=0;entryX=0.5;entryY=0;entryDx=0;entryDy=0;exitX=0.5;exitY=1;exitDx=0;exitDy=0;" edge="1" parent="1" source="fLqAwY6kQhY1PWnp1FHk-51" target="fLqAwY6kQhY1PWnp1FHk-55">
          <mxGeometry width="50" height="50" relative="1" as="geometry">
            <mxPoint x="660" y="600" as="sourcePoint" />
            <mxPoint x="710" y="550" as="targetPoint" />
          </mxGeometry>
        </mxCell>
        <mxCell id="fLqAwY6kQhY1PWnp1FHk-59" value="" style="endArrow=none;dashed=1;html=1;dashPattern=1 3;strokeWidth=2;rounded=0;entryX=0.5;entryY=0;entryDx=0;entryDy=0;exitX=0.5;exitY=1;exitDx=0;exitDy=0;" edge="1" parent="1" source="fLqAwY6kQhY1PWnp1FHk-51" target="fLqAwY6kQhY1PWnp1FHk-56">
          <mxGeometry width="50" height="50" relative="1" as="geometry">
            <mxPoint x="660" y="600" as="sourcePoint" />
            <mxPoint x="710" y="550" as="targetPoint" />
          </mxGeometry>
        </mxCell>
        <mxCell id="fLqAwY6kQhY1PWnp1FHk-62" value="&lt;font style=&quot;font-size: 18px;&quot;&gt;Students&lt;/font&gt;" style="rounded=0;whiteSpace=wrap;html=1;" vertex="1" parent="1">
          <mxGeometry x="220" y="329" width="120" height="40" as="geometry" />
        </mxCell>
        <mxCell id="fLqAwY6kQhY1PWnp1FHk-63" value="&lt;font style=&quot;font-size: 18px;&quot;&gt;provide&lt;/font&gt;" style="rhombus;whiteSpace=wrap;html=1;rotation=0;" vertex="1" parent="1">
          <mxGeometry x="500" y="180" width="120" height="41" as="geometry" />
        </mxCell>
        <mxCell id="fLqAwY6kQhY1PWnp1FHk-64" value="" style="endArrow=none;dashed=1;html=1;dashPattern=1 3;strokeWidth=2;rounded=0;entryX=0.5;entryY=1;entryDx=0;entryDy=0;exitX=0.5;exitY=0;exitDx=0;exitDy=0;" edge="1" parent="1" source="fLqAwY6kQhY1PWnp1FHk-30" target="fLqAwY6kQhY1PWnp1FHk-3">
          <mxGeometry width="50" height="50" relative="1" as="geometry">
            <mxPoint x="470" y="440" as="sourcePoint" />
            <mxPoint x="520" y="390" as="targetPoint" />
          </mxGeometry>
        </mxCell>
        <mxCell id="fLqAwY6kQhY1PWnp1FHk-65" value="" style="endArrow=none;dashed=1;html=1;dashPattern=1 3;strokeWidth=2;rounded=0;entryX=0.5;entryY=1;entryDx=0;entryDy=0;exitX=0.5;exitY=0;exitDx=0;exitDy=0;" edge="1" parent="1" source="fLqAwY6kQhY1PWnp1FHk-62" target="fLqAwY6kQhY1PWnp1FHk-30">
          <mxGeometry width="50" height="50" relative="1" as="geometry">
            <mxPoint x="470" y="440" as="sourcePoint" />
            <mxPoint x="520" y="390" as="targetPoint" />
          </mxGeometry>
        </mxCell>
        <mxCell id="fLqAwY6kQhY1PWnp1FHk-66" value="" style="endArrow=none;dashed=1;html=1;dashPattern=1 3;strokeWidth=2;rounded=0;exitX=1;exitY=0.5;exitDx=0;exitDy=0;entryX=0;entryY=0.5;entryDx=0;entryDy=0;" edge="1" parent="1" source="fLqAwY6kQhY1PWnp1FHk-62" target="fLqAwY6kQhY1PWnp1FHk-67">
          <mxGeometry width="50" height="50" relative="1" as="geometry">
            <mxPoint x="470" y="440" as="sourcePoint" />
            <mxPoint x="420" y="420" as="targetPoint" />
          </mxGeometry>
        </mxCell>
        <mxCell id="fLqAwY6kQhY1PWnp1FHk-67" value="&lt;font style=&quot;font-size: 18px;&quot;&gt;enroll in&lt;/font&gt;" style="rhombus;whiteSpace=wrap;html=1;rotation=0;" vertex="1" parent="1">
          <mxGeometry x="510" y="329" width="120" height="41" as="geometry" />
        </mxCell>
        <mxCell id="fLqAwY6kQhY1PWnp1FHk-68" value="" style="endArrow=none;dashed=1;html=1;dashPattern=1 3;strokeWidth=2;rounded=0;entryX=0;entryY=0.5;entryDx=0;entryDy=0;exitX=1;exitY=0.5;exitDx=0;exitDy=0;" edge="1" parent="1" source="fLqAwY6kQhY1PWnp1FHk-67" target="fLqAwY6kQhY1PWnp1FHk-89">
          <mxGeometry width="50" height="50" relative="1" as="geometry">
            <mxPoint x="470" y="440" as="sourcePoint" />
            <mxPoint x="520" y="390" as="targetPoint" />
          </mxGeometry>
        </mxCell>
        <mxCell id="fLqAwY6kQhY1PWnp1FHk-70" value="&lt;font style=&quot;font-size: 18px;&quot;&gt;submit&lt;/font&gt;" style="rhombus;whiteSpace=wrap;html=1;rotation=0;" vertex="1" parent="1">
          <mxGeometry x="300" y="410" width="120" height="41" as="geometry" />
        </mxCell>
        <mxCell id="fLqAwY6kQhY1PWnp1FHk-71" value="" style="endArrow=none;dashed=1;html=1;dashPattern=1 3;strokeWidth=2;rounded=0;entryX=0.5;entryY=1;entryDx=0;entryDy=0;exitX=0.5;exitY=0;exitDx=0;exitDy=0;" edge="1" parent="1" source="fLqAwY6kQhY1PWnp1FHk-70" target="fLqAwY6kQhY1PWnp1FHk-62">
          <mxGeometry width="50" height="50" relative="1" as="geometry">
            <mxPoint x="470" y="520" as="sourcePoint" />
            <mxPoint x="520" y="470" as="targetPoint" />
          </mxGeometry>
        </mxCell>
        <mxCell id="fLqAwY6kQhY1PWnp1FHk-72" value="" style="endArrow=none;dashed=1;html=1;dashPattern=1 3;strokeWidth=2;rounded=0;exitX=0.5;exitY=1;exitDx=0;exitDy=0;entryX=0.5;entryY=0;entryDx=0;entryDy=0;" edge="1" parent="1" source="fLqAwY6kQhY1PWnp1FHk-70" target="fLqAwY6kQhY1PWnp1FHk-51">
          <mxGeometry width="50" height="50" relative="1" as="geometry">
            <mxPoint x="470" y="520" as="sourcePoint" />
            <mxPoint x="520" y="470" as="targetPoint" />
          </mxGeometry>
        </mxCell>
        <mxCell id="fLqAwY6kQhY1PWnp1FHk-73" value="&lt;font style=&quot;font-size: 18px;&quot;&gt;receive&lt;/font&gt;" style="rhombus;whiteSpace=wrap;html=1;rotation=0;" vertex="1" parent="1">
          <mxGeometry x="130" y="410" width="120" height="41" as="geometry" />
        </mxCell>
        <mxCell id="fLqAwY6kQhY1PWnp1FHk-74" value="" style="endArrow=none;dashed=1;html=1;dashPattern=1 3;strokeWidth=2;rounded=0;exitX=0.5;exitY=0;exitDx=0;exitDy=0;entryX=0.5;entryY=1;entryDx=0;entryDy=0;" edge="1" parent="1" source="fLqAwY6kQhY1PWnp1FHk-73" target="fLqAwY6kQhY1PWnp1FHk-62">
          <mxGeometry width="50" height="50" relative="1" as="geometry">
            <mxPoint x="340" y="620" as="sourcePoint" />
            <mxPoint x="390" y="570" as="targetPoint" />
          </mxGeometry>
        </mxCell>
        <mxCell id="fLqAwY6kQhY1PWnp1FHk-75" value="" style="endArrow=none;dashed=1;html=1;dashPattern=1 3;strokeWidth=2;rounded=0;entryX=0.5;entryY=1;entryDx=0;entryDy=0;exitX=0.5;exitY=0;exitDx=0;exitDy=0;" edge="1" parent="1" source="fLqAwY6kQhY1PWnp1FHk-76" target="fLqAwY6kQhY1PWnp1FHk-73">
          <mxGeometry width="50" height="50" relative="1" as="geometry">
            <mxPoint x="90" y="600" as="sourcePoint" />
            <mxPoint x="390" y="570" as="targetPoint" />
          </mxGeometry>
        </mxCell>
        <mxCell id="fLqAwY6kQhY1PWnp1FHk-76" value="&lt;font style=&quot;font-size: 18px;&quot;&gt;Grades&lt;/font&gt;" style="rounded=0;whiteSpace=wrap;html=1;" vertex="1" parent="1">
          <mxGeometry x="30" y="539" width="120" height="40" as="geometry" />
        </mxCell>
        <mxCell id="fLqAwY6kQhY1PWnp1FHk-78" value="assignment_id" style="ellipse;whiteSpace=wrap;html=1;" vertex="1" parent="1">
          <mxGeometry y="680" width="100" height="40" as="geometry" />
        </mxCell>
        <mxCell id="fLqAwY6kQhY1PWnp1FHk-79" value="score" style="ellipse;whiteSpace=wrap;html=1;" vertex="1" parent="1">
          <mxGeometry x="120" y="680" width="100" height="40" as="geometry" />
        </mxCell>
        <mxCell id="fLqAwY6kQhY1PWnp1FHk-80" value="" style="endArrow=none;dashed=1;html=1;dashPattern=1 3;strokeWidth=2;rounded=0;exitX=0.5;exitY=0;exitDx=0;exitDy=0;entryX=0.5;entryY=1;entryDx=0;entryDy=0;" edge="1" parent="1" source="fLqAwY6kQhY1PWnp1FHk-78" target="fLqAwY6kQhY1PWnp1FHk-76">
          <mxGeometry width="50" height="50" relative="1" as="geometry">
            <mxPoint x="340" y="620" as="sourcePoint" />
            <mxPoint x="390" y="570" as="targetPoint" />
          </mxGeometry>
        </mxCell>
        <mxCell id="fLqAwY6kQhY1PWnp1FHk-81" value="" style="endArrow=none;dashed=1;html=1;dashPattern=1 3;strokeWidth=2;rounded=0;exitX=0.5;exitY=1;exitDx=0;exitDy=0;entryX=0.5;entryY=0;entryDx=0;entryDy=0;" edge="1" parent="1" source="fLqAwY6kQhY1PWnp1FHk-76" target="fLqAwY6kQhY1PWnp1FHk-79">
          <mxGeometry width="50" height="50" relative="1" as="geometry">
            <mxPoint x="340" y="620" as="sourcePoint" />
            <mxPoint x="390" y="570" as="targetPoint" />
          </mxGeometry>
        </mxCell>
        <mxCell id="fLqAwY6kQhY1PWnp1FHk-82" value="" style="endArrow=none;dashed=1;html=1;dashPattern=1 3;strokeWidth=2;rounded=0;exitX=1;exitY=0.5;exitDx=0;exitDy=0;entryX=0;entryY=0.5;entryDx=0;entryDy=0;" edge="1" parent="1" source="fLqAwY6kQhY1PWnp1FHk-76" target="fLqAwY6kQhY1PWnp1FHk-83">
          <mxGeometry width="50" height="50" relative="1" as="geometry">
            <mxPoint x="340" y="620" as="sourcePoint" />
            <mxPoint x="220" y="620" as="targetPoint" />
          </mxGeometry>
        </mxCell>
        <mxCell id="fLqAwY6kQhY1PWnp1FHk-83" value="&lt;span style=&quot;font-size: 18px;&quot;&gt;given by&lt;/span&gt;" style="rhombus;whiteSpace=wrap;html=1;rotation=0;" vertex="1" parent="1">
          <mxGeometry x="220" y="539" width="120" height="41" as="geometry" />
        </mxCell>
        <mxCell id="fLqAwY6kQhY1PWnp1FHk-84" value="" style="endArrow=none;dashed=1;html=1;dashPattern=1 3;strokeWidth=2;rounded=0;entryX=0;entryY=0.5;entryDx=0;entryDy=0;exitX=1;exitY=0.5;exitDx=0;exitDy=0;" edge="1" parent="1" source="fLqAwY6kQhY1PWnp1FHk-83" target="fLqAwY6kQhY1PWnp1FHk-51">
          <mxGeometry width="50" height="50" relative="1" as="geometry">
            <mxPoint x="360" y="630" as="sourcePoint" />
            <mxPoint x="390" y="570" as="targetPoint" />
          </mxGeometry>
        </mxCell>
        <mxCell id="fLqAwY6kQhY1PWnp1FHk-85" value="&lt;font style=&quot;font-size: 18px;&quot;&gt;given by&lt;/font&gt;" style="rhombus;whiteSpace=wrap;html=1;rotation=0;" vertex="1" parent="1">
          <mxGeometry x="510" y="460" width="120" height="41" as="geometry" />
        </mxCell>
        <mxCell id="fLqAwY6kQhY1PWnp1FHk-87" value="" style="endArrow=none;dashed=1;html=1;dashPattern=1 3;strokeWidth=2;rounded=0;entryX=0;entryY=0.5;entryDx=0;entryDy=0;exitX=0.5;exitY=0;exitDx=0;exitDy=0;" edge="1" parent="1" source="fLqAwY6kQhY1PWnp1FHk-51" target="fLqAwY6kQhY1PWnp1FHk-85">
          <mxGeometry width="50" height="50" relative="1" as="geometry">
            <mxPoint x="630" y="600" as="sourcePoint" />
            <mxPoint x="660" y="480" as="targetPoint" />
          </mxGeometry>
        </mxCell>
        <mxCell id="fLqAwY6kQhY1PWnp1FHk-88" value="" style="endArrow=none;dashed=1;html=1;dashPattern=1 3;strokeWidth=2;rounded=0;exitX=1;exitY=0.5;exitDx=0;exitDy=0;entryX=0;entryY=0.5;entryDx=0;entryDy=0;" edge="1" parent="1" source="fLqAwY6kQhY1PWnp1FHk-85" target="fLqAwY6kQhY1PWnp1FHk-89">
          <mxGeometry width="50" height="50" relative="1" as="geometry">
            <mxPoint x="600" y="440" as="sourcePoint" />
            <mxPoint x="710" y="520" as="targetPoint" />
          </mxGeometry>
        </mxCell>
        <mxCell id="fLqAwY6kQhY1PWnp1FHk-89" value="&lt;font style=&quot;font-size: 18px;&quot;&gt;Sections&lt;/font&gt;" style="rounded=0;whiteSpace=wrap;html=1;" vertex="1" parent="1">
          <mxGeometry x="780" y="330" width="120" height="40" as="geometry" />
        </mxCell>
        <mxCell id="fLqAwY6kQhY1PWnp1FHk-90" value="section_id" style="ellipse;whiteSpace=wrap;html=1;" vertex="1" parent="1">
          <mxGeometry x="1020" y="260" width="100" height="40" as="geometry" />
        </mxCell>
        <mxCell id="fLqAwY6kQhY1PWnp1FHk-91" value="course_name" style="ellipse;whiteSpace=wrap;html=1;" vertex="1" parent="1">
          <mxGeometry x="1020" y="380" width="100" height="40" as="geometry" />
        </mxCell>
        <mxCell id="fLqAwY6kQhY1PWnp1FHk-92" value="" style="endArrow=none;dashed=1;html=1;dashPattern=1 3;strokeWidth=2;rounded=0;entryX=1;entryY=0.5;entryDx=0;entryDy=0;exitX=0;exitY=0.5;exitDx=0;exitDy=0;" edge="1" parent="1" source="fLqAwY6kQhY1PWnp1FHk-90" target="fLqAwY6kQhY1PWnp1FHk-89">
          <mxGeometry width="50" height="50" relative="1" as="geometry">
            <mxPoint x="930" y="460" as="sourcePoint" />
            <mxPoint x="990" y="520" as="targetPoint" />
          </mxGeometry>
        </mxCell>
        <mxCell id="fLqAwY6kQhY1PWnp1FHk-93" value="" style="endArrow=none;dashed=1;html=1;dashPattern=1 3;strokeWidth=2;rounded=0;exitX=1;exitY=0.5;exitDx=0;exitDy=0;entryX=0;entryY=0.5;entryDx=0;entryDy=0;" edge="1" parent="1" source="fLqAwY6kQhY1PWnp1FHk-89" target="fLqAwY6kQhY1PWnp1FHk-91">
          <mxGeometry width="50" height="50" relative="1" as="geometry">
            <mxPoint x="990" y="520" as="sourcePoint" />
            <mxPoint x="940" y="500" as="targetPoint" />
          </mxGeometry>
        </mxCell>
        <mxCell id="fLqAwY6kQhY1PWnp1FHk-94" value="due_date" style="ellipse;whiteSpace=wrap;html=1;" vertex="1" parent="1">
          <mxGeometry x="680" y="720" width="100" height="40" as="geometry" />
        </mxCell>
        <mxCell id="fLqAwY6kQhY1PWnp1FHk-95" value="" style="endArrow=none;dashed=1;html=1;dashPattern=1 3;strokeWidth=2;rounded=0;exitX=0.5;exitY=1;exitDx=0;exitDy=0;entryX=0.5;entryY=0;entryDx=0;entryDy=0;" edge="1" parent="1" source="fLqAwY6kQhY1PWnp1FHk-51" target="fLqAwY6kQhY1PWnp1FHk-94">
          <mxGeometry width="50" height="50" relative="1" as="geometry">
            <mxPoint x="610" y="530" as="sourcePoint" />
            <mxPoint x="660" y="480" as="targetPoint" />
          </mxGeometry>
        </mxCell>
        <mxCell id="fLqAwY6kQhY1PWnp1FHk-96" value="&lt;font style=&quot;font-size: 18px;&quot;&gt;contain&lt;/font&gt;" style="rhombus;whiteSpace=wrap;html=1;rotation=0;" vertex="1" parent="1">
          <mxGeometry x="780" y="210" width="120" height="41" as="geometry" />
        </mxCell>
        <mxCell id="fLqAwY6kQhY1PWnp1FHk-97" value="" style="endArrow=none;dashed=1;html=1;dashPattern=1 3;strokeWidth=2;rounded=0;entryX=0.5;entryY=1;entryDx=0;entryDy=0;exitX=0.5;exitY=0;exitDx=0;exitDy=0;" edge="1" parent="1" source="fLqAwY6kQhY1PWnp1FHk-96" target="fLqAwY6kQhY1PWnp1FHk-25">
          <mxGeometry width="50" height="50" relative="1" as="geometry">
            <mxPoint x="610" y="530" as="sourcePoint" />
            <mxPoint x="660" y="480" as="targetPoint" />
          </mxGeometry>
        </mxCell>
        <mxCell id="fLqAwY6kQhY1PWnp1FHk-98" value="" style="endArrow=none;dashed=1;html=1;dashPattern=1 3;strokeWidth=2;rounded=0;entryX=0.5;entryY=1;entryDx=0;entryDy=0;exitX=0.5;exitY=0;exitDx=0;exitDy=0;" edge="1" parent="1" source="fLqAwY6kQhY1PWnp1FHk-89" target="fLqAwY6kQhY1PWnp1FHk-96">
          <mxGeometry width="50" height="50" relative="1" as="geometry">
            <mxPoint x="610" y="530" as="sourcePoint" />
            <mxPoint x="660" y="480" as="targetPoint" />
          </mxGeometry>
        </mxCell>
        <mxCell id="fLqAwY6kQhY1PWnp1FHk-99" value="&lt;font style=&quot;font-size: 18px;&quot;&gt;held in&lt;/font&gt;" style="rhombus;whiteSpace=wrap;html=1;rotation=0;" vertex="1" parent="1">
          <mxGeometry x="780" y="437" width="120" height="41" as="geometry" />
        </mxCell>
        <mxCell id="fLqAwY6kQhY1PWnp1FHk-100" value="" style="endArrow=none;dashed=1;html=1;dashPattern=1 3;strokeWidth=2;rounded=0;entryX=0.5;entryY=1;entryDx=0;entryDy=0;exitX=0.5;exitY=0;exitDx=0;exitDy=0;" edge="1" parent="1" source="fLqAwY6kQhY1PWnp1FHk-99" target="fLqAwY6kQhY1PWnp1FHk-89">
          <mxGeometry width="50" height="50" relative="1" as="geometry">
            <mxPoint x="600" y="450" as="sourcePoint" />
            <mxPoint x="650" y="400" as="targetPoint" />
          </mxGeometry>
        </mxCell>
        <mxCell id="fLqAwY6kQhY1PWnp1FHk-101" value="" style="endArrow=none;dashed=1;html=1;dashPattern=1 3;strokeWidth=2;rounded=0;entryX=0.5;entryY=0;entryDx=0;entryDy=0;exitX=0.5;exitY=1;exitDx=0;exitDy=0;" edge="1" parent="1" source="fLqAwY6kQhY1PWnp1FHk-99" target="fLqAwY6kQhY1PWnp1FHk-7">
          <mxGeometry width="50" height="50" relative="1" as="geometry">
            <mxPoint x="600" y="450" as="sourcePoint" />
            <mxPoint x="650" y="400" as="targetPoint" />
          </mxGeometry>
        </mxCell>
        <mxCell id="fLqAwY6kQhY1PWnp1FHk-103" value="&lt;b&gt;&lt;font style=&quot;font-size: 14px;&quot;&gt;M&lt;/font&gt;&lt;/b&gt;" style="text;strokeColor=none;align=center;fillColor=none;html=1;verticalAlign=middle;whiteSpace=wrap;rounded=0;" vertex="1" parent="1">
          <mxGeometry x="330" y="320" width="60" height="30" as="geometry" />
        </mxCell>
        <mxCell id="fLqAwY6kQhY1PWnp1FHk-104" value="&lt;b&gt;&lt;font style=&quot;font-size: 14px;&quot;&gt;M&lt;/font&gt;&lt;/b&gt;" style="text;strokeColor=none;align=center;fillColor=none;html=1;verticalAlign=middle;whiteSpace=wrap;rounded=0;" vertex="1" parent="1">
          <mxGeometry x="50" y="501" width="60" height="30" as="geometry" />
        </mxCell>
        <mxCell id="fLqAwY6kQhY1PWnp1FHk-108" value="&lt;b&gt;&lt;font style=&quot;font-size: 14px;&quot;&gt;1&lt;/font&gt;&lt;/b&gt;" style="text;strokeColor=none;align=center;fillColor=none;html=1;verticalAlign=middle;whiteSpace=wrap;rounded=0;" vertex="1" parent="1">
          <mxGeometry x="140" y="520" width="60" height="30" as="geometry" />
        </mxCell>
        <mxCell id="fLqAwY6kQhY1PWnp1FHk-112" value="&lt;b&gt;&lt;font style=&quot;font-size: 14px;&quot;&gt;1&lt;/font&gt;&lt;/b&gt;" style="text;strokeColor=none;align=center;fillColor=none;html=1;verticalAlign=middle;whiteSpace=wrap;rounded=0;" vertex="1" parent="1">
          <mxGeometry x="340" y="520" width="60" height="30" as="geometry" />
        </mxCell>
        <mxCell id="fLqAwY6kQhY1PWnp1FHk-114" value="&lt;b&gt;&lt;font style=&quot;font-size: 14px;&quot;&gt;M&lt;/font&gt;&lt;/b&gt;" style="text;strokeColor=none;align=center;fillColor=none;html=1;verticalAlign=middle;whiteSpace=wrap;rounded=0;" vertex="1" parent="1">
          <mxGeometry x="455" y="509" width="60" height="30" as="geometry" />
        </mxCell>
        <mxCell id="fLqAwY6kQhY1PWnp1FHk-115" value="&lt;b&gt;&lt;font style=&quot;font-size: 14px;&quot;&gt;N&lt;/font&gt;&lt;/b&gt;" style="text;strokeColor=none;align=center;fillColor=none;html=1;verticalAlign=middle;whiteSpace=wrap;rounded=0;" vertex="1" parent="1">
          <mxGeometry x="730" y="299" width="60" height="30" as="geometry" />
        </mxCell>
        <mxCell id="fLqAwY6kQhY1PWnp1FHk-116" value="&lt;b&gt;&lt;font style=&quot;font-size: 14px;&quot;&gt;N&lt;/font&gt;&lt;/b&gt;" style="text;strokeColor=none;align=center;fillColor=none;html=1;verticalAlign=middle;whiteSpace=wrap;rounded=0;" vertex="1" parent="1">
          <mxGeometry x="713" y="323" width="60" height="30" as="geometry" />
        </mxCell>
        <mxCell id="fLqAwY6kQhY1PWnp1FHk-118" value="&lt;b&gt;&lt;font style=&quot;font-size: 14px;&quot;&gt;N&lt;/font&gt;&lt;/b&gt;" style="text;strokeColor=none;align=center;fillColor=none;html=1;verticalAlign=middle;whiteSpace=wrap;rounded=0;" vertex="1" parent="1">
          <mxGeometry x="729" y="371" width="60" height="30" as="geometry" />
        </mxCell>
        <mxCell id="fLqAwY6kQhY1PWnp1FHk-119" value="&lt;b&gt;&lt;font style=&quot;font-size: 14px;&quot;&gt;1&lt;/font&gt;&lt;/b&gt;" style="text;strokeColor=none;align=center;fillColor=none;html=1;verticalAlign=middle;whiteSpace=wrap;rounded=0;" vertex="1" parent="1">
          <mxGeometry x="830" y="371" width="60" height="30" as="geometry" />
        </mxCell>
        <mxCell id="fLqAwY6kQhY1PWnp1FHk-120" value="&lt;b&gt;&lt;font style=&quot;font-size: 14px;&quot;&gt;1&lt;/font&gt;&lt;/b&gt;" style="text;strokeColor=none;align=center;fillColor=none;html=1;verticalAlign=middle;whiteSpace=wrap;rounded=0;" vertex="1" parent="1">
          <mxGeometry x="830" y="489.5" width="60" height="69" as="geometry" />
        </mxCell>
        <mxCell id="fLqAwY6kQhY1PWnp1FHk-121" value="&lt;b&gt;&lt;font style=&quot;font-size: 14px;&quot;&gt;1&lt;/font&gt;&lt;/b&gt;" style="text;strokeColor=none;align=center;fillColor=none;html=1;verticalAlign=middle;whiteSpace=wrap;rounded=0;" vertex="1" parent="1">
          <mxGeometry x="830" y="150" width="60" height="30" as="geometry" />
        </mxCell>
        <mxCell id="fLqAwY6kQhY1PWnp1FHk-122" value="&lt;b&gt;&lt;font style=&quot;font-size: 14px;&quot;&gt;M&lt;/font&gt;&lt;/b&gt;" style="text;strokeColor=none;align=center;fillColor=none;html=1;verticalAlign=middle;whiteSpace=wrap;rounded=0;" vertex="1" parent="1">
          <mxGeometry x="830" y="299" width="60" height="30" as="geometry" />
        </mxCell>
        <mxCell id="fLqAwY6kQhY1PWnp1FHk-123" value="&lt;b&gt;&lt;font style=&quot;font-size: 14px;&quot;&gt;1&lt;/font&gt;&lt;/b&gt;" style="text;strokeColor=none;align=center;fillColor=none;html=1;verticalAlign=middle;whiteSpace=wrap;rounded=0;" vertex="1" parent="1">
          <mxGeometry x="330" y="100" width="60" height="30" as="geometry" />
        </mxCell>
        <mxCell id="fLqAwY6kQhY1PWnp1FHk-124" value="&lt;b&gt;&lt;font style=&quot;font-size: 14px;&quot;&gt;1&lt;/font&gt;&lt;/b&gt;" style="text;strokeColor=none;align=center;fillColor=none;html=1;verticalAlign=middle;whiteSpace=wrap;rounded=0;" vertex="1" parent="1">
          <mxGeometry x="260" y="150" width="60" height="30" as="geometry" />
        </mxCell>
        <mxCell id="fLqAwY6kQhY1PWnp1FHk-125" value="&lt;b&gt;&lt;font style=&quot;font-size: 14px;&quot;&gt;M&lt;/font&gt;&lt;/b&gt;" style="text;strokeColor=none;align=center;fillColor=none;html=1;verticalAlign=middle;whiteSpace=wrap;rounded=0;" vertex="1" parent="1">
          <mxGeometry x="260" y="300" width="60" height="30" as="geometry" />
        </mxCell>
        <mxCell id="fLqAwY6kQhY1PWnp1FHk-126" value="&lt;b&gt;&lt;font style=&quot;font-size: 14px;&quot;&gt;1&lt;/font&gt;&lt;/b&gt;" style="text;strokeColor=none;align=center;fillColor=none;html=1;verticalAlign=middle;whiteSpace=wrap;rounded=0;" vertex="1" parent="1">
          <mxGeometry x="190" y="369" width="60" height="30" as="geometry" />
        </mxCell>
        <mxCell id="fLqAwY6kQhY1PWnp1FHk-127" value="&lt;b&gt;&lt;font style=&quot;font-size: 14px;&quot;&gt;1&lt;/font&gt;&lt;/b&gt;" style="text;strokeColor=none;align=center;fillColor=none;html=1;verticalAlign=middle;whiteSpace=wrap;rounded=0;" vertex="1" parent="1">
          <mxGeometry x="300" y="369" width="60" height="30" as="geometry" />
        </mxCell>
      </root>
    </mxGraphModel>
  </diagram>
</mxfile>
